<svg fill="current" stroke="current" id="Capa_1" enable-background="new 0 0 512 512" height="512" viewBox="0 0 512 512" width="512" xmlns="http://www.w3.org/2000/svg"><g><path d="m452 150v-120h-60v-30h-90v30h-60v185.729l-60 30v81.104c0 35.187 17.479 67.847 46.757 87.365l43.243 28.83v68.972h210v-71.026c19.394-21.573 30-49.171 30-78.4v-212.574zm30 212.574c0 41.994-28.455 64.005-30 66.213v53.213h-150v-55.028l-56.603-37.735c-20.912-13.941-33.397-37.27-33.397-62.404v-62.563l30-15v80.73h30v-270h30v150h30c0-10.41 0-169.435 0-180h30v180h30v-150h30v150h30v-30h30z"/><path d="m120 210h90v-90h-30v38.787l-53.787-53.787 53.787-53.787v38.787h30v-90h-90v30h38.787l-53.787 53.787-53.787-53.787h38.787v-30h-90v90h30v-38.787l53.787 53.787-53.787 53.787v-38.787h-30v90h90v-30h-38.787l53.787-53.787 53.787 53.787h-38.787z"/></g></svg>